# xmcd
#
# Track frame offsets:
#  150
#  15423
#  44871
#  60369
#  72192
#  92115
#  101013
#  114186
#  125784
#  149232
#  172305
#  186678
#  204501
#  231024
#  247722
#  263295
#  281343
#  300216
#  311139
#
# Disc length: 4262 seconds
#
# Revision: 0
# Processed by: cddbd v1.5.1PL2 Copyright (c) Steve Scherf et al.
# Submitted via: Collectorz.com_Music_Collector 6.10
#
DISCID=1110a413
DTITLE=The Byrds - Avalon Ballroom, San Francisco - 2nd November 1968
DYEAR=1900
DGENRE=
TTITLE0=Old Blue
TTITLE1=My Back Pages/Baby, What Do You Want Me To Do
TTITLE2=Mr. Spaceman
TTITLE3=Time Between
TTITLE4=Goin' Back
TTITLE5=Blue Suede Shoes
TTITLE6=He Was A Friend Of Mine
TTITLE7=So You Want To Be A Rock 'n' Roll Star
TTITLE8=Drug Store Truck Drivin' Man
TTITLE9=This Wheel's On Fire
TTITLE10=Stanley's Song (Cut)
TTITLE11=Pretty Boy Floyd
TTITLE12=Eight Miles High
TTITLE13=You Don't Miss The Water
TTITLE14=So You Want To Be A Rock 'n' Roll Star
TTITLE15=Hickory Wind
TTITLE16=King Apathy III
TTITLE17=Bad Night At The Whiskey
TTITLE18=Nashville West
EXTD=
EXTT0=
EXTT1=
EXTT2=
EXTT3=
EXTT4=
EXTT5=
EXTT6=
EXTT7=
EXTT8=
EXTT9=
EXTT10=
EXTT11=
EXTT12=
EXTT13=
EXTT14=
EXTT15=
EXTT16=
EXTT17=
EXTT18=
PLAYORDER=
